<mxfile host="app.diagrams.net" modified="2023-07-16T13:31:11.021Z" agent="Mozilla/5.0 (Windows NT 10.0; Win64; x64) AppleWebKit/537.36 (KHTML, like Gecko) Chrome/115.0.0.0 Safari/537.36" version="21.3.5" etag="vZQm411CS42GHaxiV-Yh" type="github">
  <diagram name="Page-1" id="Y9LvSy66vkdUup0lG3qh">
    <mxGraphModel>
      <root>
        <mxCell id="0" />
        <mxCell id="1" parent="0" />
      </root>
    </mxGraphModel>
  </diagram>
</mxfile>
